<?xml version="1.0" encoding="UTF-8" standalone="no"?>
<!-- Created with Inkscape (http://www.inkscape.org/) -->

<svg
   width="542.21002"
   height="542.21002"
   viewBox="0 0 143.45973 143.45974"
   version="1.1"
   id="svg5"
   inkscape:version="1.2.2 (b0a8486541, 2022-12-01)"
   sodipodi:docname="2023-07-30_LogoReinwiese_Tobi_1-1-0_favicon.svg"
   inkscape:export-filename="favicons/32_detail.png"
   inkscape:export-xdpi="5.6657014"
   inkscape:export-ydpi="5.6657014"
   xmlns:inkscape="http://www.inkscape.org/namespaces/inkscape"
   xmlns:sodipodi="http://sodipodi.sourceforge.net/DTD/sodipodi-0.dtd"
   xmlns="http://www.w3.org/2000/svg"
   xmlns:svg="http://www.w3.org/2000/svg">
  <sodipodi:namedview
     id="namedview7"
     pagecolor="#000000"
     bordercolor="#000000"
     borderopacity="0"
     inkscape:pageshadow="2"
     inkscape:pageopacity="0"
     inkscape:pagecheckerboard="true"
     inkscape:document-units="px"
     showgrid="false"
     inkscape:zoom="0.87885426"
     inkscape:cx="147.91986"
     inkscape:cy="342.49137"
     inkscape:window-width="1920"
     inkscape:window-height="1009"
     inkscape:window-x="0"
     inkscape:window-y="0"
     inkscape:window-maximized="1"
     inkscape:current-layer="g1255"
     units="px"
     width="500px"
     fit-margin-left="20"
     fit-margin-right="20"
     fit-margin-top="20"
     fit-margin-bottom="20"
     inkscape:showpageshadow="0"
     inkscape:deskcolor="#005e00"
     showguides="false"
     shape-rendering="auto" />
  <defs
     id="defs2" />
  <style>
    .background {fill:#52a130;}
    @media (prefers-color-scheme: dark) {
      .background {fill:#32621d;}
    }
  </style>
  <g
     inkscape:groupmode="layer"
     id="g1255"
     class="background"
     inkscape:label="Kontur"
     style="display:inline;fill-opacity:1;stroke:none;stroke-width:0;stroke-dasharray:none;stroke-opacity:1"
     transform="translate(-25.952896,-84.696002)">
    <rect
       class="background"
       style="opacity:0.98;fill-opacity:1;stroke:#fffff5;stroke-width:0;stroke-linecap:round;stroke-linejoin:round;stroke-dasharray:none"
       id="rect3601"
       width="143.45973"
       height="143.45973"
       x="25.952898"
       y="84.696007"
       ry="26.625402" />
    <path
       id="path1101"
       style="display:inline;fill:#ffffff;fill-opacity:1;stroke:#ffffff;stroke-width:0;stroke-linecap:round;stroke-linejoin:round;stroke-miterlimit:4;stroke-dasharray:none;stroke-opacity:1"
       d="m 115.88025,117.69895 c 0.0134,0.59798 -0.22193,1.07172 -0.61159,1.50363 -2.60414,2.8865 0.15063,4.8241 1.01064,5.10061 h 4.6e-4 c -0.0526,0.23205 0.005,0.71392 0.005,0.71392 l 0.0219,-0.7195 c 2.58509,-0.50354 3.62709,-4.17673 -0.4265,-6.59866 z m 0.40463,7.31816 c -0.0396,1.72703 -0.0342,3.3179 -0.0507,4.74017 -0.0571,4.93981 -0.40197,7.64441 -4.00488,5.22061 -1.20826,-0.81285 -2.78339,-2.20178 -4.83644,-4.27276 -0.68812,-0.69412 -1.42749,-1.46123 -2.22731,-2.31289 3.34302,5.93195 9.49861,9.02563 9.80964,10.31101 l 0.0163,3.21189 0.0298,5.74896 c -0.37126,1.76827 -1.69392,1.83045 -3.49747,0.92552 l 0.11488,-1.22225 c 0.98468,-0.14471 2.47383,-0.86284 1.452,-2.64496 -0.34317,-0.59849 -0.46706,-1.27074 -0.62833,-1.90872 -1.31536,0.34493 -4.08437,4.08061 -1.11621,4.58065 0.0777,0.35362 0.14227,0.98956 0.16138,1.18691 -1.13956,-0.57453 -2.47032,-1.5339 -3.87464,-2.69286 l 0.27347,-0.81949 c 1.5592,0.10941 1.97961,-1.62964 2.13057,-2.93005 0.0658,-0.56644 0.0584,-1.11206 0.54508,-1.57385 -4.02443,-2.05434 -4.43687,2.89881 -2.97749,4.46251 -0.009,0.25203 -0.0159,0.61258 -0.02,0.82181 -0.93873,-0.77685 -1.90895,-1.64078 -2.87704,-2.53891 0.0255,-0.27373 0.0845,-0.84667 0.16186,-1.16784 2.70733,-1.08594 1.5002,-3.10712 -0.18604,-4.38718 0.0253,0.79938 -0.29407,1.26604 -0.76972,1.60874 -1.38462,0.99761 -0.98954,3.13737 0.87483,2.79472 l -0.0837,1.14923 c -1.08199,-1.00387 -2.15383,-2.04444 -3.17981,-3.05423 0.0149,-0.20968 0.0885,-1.26657 0.0847,-1.84779 2.19929,-1.9663 1.21427,-6.10993 -2.162653,-6.36101 -1.554449,3.62936 -0.470106,5.88029 1.710113,6.30147 l 0.34278,1.88222 c -1.659154,-1.63342 -3.186559,-3.17701 -4.361589,-4.29603 0.791518,0.95195 1.555724,1.90898 2.326834,2.8682 1.323755,1.64672 2.667385,3.29994 4.205785,4.94482 h 4.6e-4 c 1.45959,1.56061 3.09393,3.11357 5.05132,4.64669 -4.21591,0.77523 -4.62163,0.49362 -7.20979,2.1115 0.7682,-0.14053 1.53145,-0.29801 2.28684,-0.44788 l -1.38689,1.61107 c -1.22448,-0.59587 -4.6603,-0.27092 -4.715059,3.53373 -0.01917,1.33017 -0.05546,1.99078 -0.407882,2.54403 0.471168,-0.6431 1.588478,-0.9801 3.017961,-1.2269 2.91141,-0.50266 3.52623,-3.54341 2.38682,-4.66157 0.86134,-0.64441 1.10344,-1.77992 1.10784,-1.80082 1.71361,-0.33995 3.38249,-0.63673 4.949,-0.5888 l -0.82414,1.24923 c -3.37363,0.85239 -3.53472,3.67681 -1.93244,5.18618 0.3859,0.36352 0.93021,0.61567 1.23527,0.99064 0.47095,-0.49382 0.87136,-0.44294 1.27295,-0.78692 1.53484,-1.31471 1.13583,-4.05153 -0.17348,-5.1276 l 0.4316,-1.51153 c 2.03439,0.0641 3.89689,0.71044 5.46432,2.60402 0.46916,0.56678 0.3858,17.49164 -0.80506,20.92663 -5.70669,0.93852 -11.33686,2.53694 -16.653865,4.7918 10.076365,2.322 18.800765,3.79344 26.245775,4.53305 15.73923,1.56359 25.76055,-0.14355 30.7498,-3.99959 -10.00025,-5.13509 -22.3732,-7.1266 -34.74624,-6.03172 -0.78946,-2.90301 -0.85644,-13.5291 -0.9632,-20.11878 0.0418,-2.08633 2.1623,-3.05064 3.84907,-2.6124 9e-4,2.4e-4 0.002,2.3e-4 0.003,4.7e-4 4.36834,1.13935 3.90731,1.28356 6.80702,1.33945 -3.0864,-0.5439 -2.98317,-0.65034 -5.46199,-1.57014 -0.96531,-0.3582 -0.67722,-1.09721 -0.21859,-1.36037 1.60914,-0.96522 3.04894,-1.96824 4.31276,-2.98076 1.14223,-0.9151 2.14029,-1.83781 2.99005,-2.74634 1.56158,-1.6696 2.62156,-3.29188 3.14818,-4.73367 -0.69418,0.92347 -1.40876,1.78055 -2.13615,2.57984 l 0.31114,-1.29154 c 1.21843,-0.74281 1.2728,-1.89529 1.33295,-2.60636 0.0688,-0.81338 0.44215,-1.52532 0.84693,-2.11707 -2.29608,0.86632 -5.65903,3.08032 -2.6138,4.9476 0.003,0.3577 0.12112,1.06397 0.12185,1.06831 -1.07066,1.17641 -2.17005,2.22518 -3.27748,3.16259 v 4.7e-4 c -1.13154,0.95782 -2.27081,1.79617 -3.39653,2.54218 l -0.0618,-1.25202 c 1.8288,-0.96091 1.99816,-3.43752 -0.5623,-5.61966 -1.80384,4.98424 -1.48488,6.04702 0.13813,5.80476 -0.0829,0.37854 0.47077,1.05264 0.48369,1.06831 -0.65633,0.43487 -1.30826,0.83981 -1.95058,1.21295 l -0.61019,-0.54416 c 0.25776,-0.37857 0.18024,-0.88797 0.0176,-1.13667 -0.37301,-0.57067 -2.12504,-1.7648 -3.60535,-1.81803 0.42586,0.72751 0.87675,1.49055 0.96784,2.31893 0.0464,0.42133 0.33434,0.83636 0.98971,1.02412 0.43147,0.12361 0.89799,0.12033 1.28597,-0.0856 0.0701,-0.0373 0.13257,-0.0801 0.18649,-0.1265 0.23148,0.16135 0.75959,0.36532 0.7674,0.36834 -0.85252,0.49522 -1.68877,0.94077 -2.49845,1.34271 -1.56035,0.6183 -2.56195,0.4359 -2.59147,-0.68181 l -0.21161,-8.00464 c -0.0242,-0.91616 0.11038,-1.49843 0.87436,-2.41287 l 0.7474,1.23202 c -1.5421,0.75597 -1.38528,3.82724 1.06645,3.94813 0.985,0.0486 1.44845,0.60278 1.99103,1.09062 -0.0837,-1.35028 0.12745,-5.42998 -2.77239,-5.14573 -0.28367,-0.4124 -0.99969,-1.09648 -1.03109,-1.12644 0.61494,-0.73568 1.65486,-1.70191 3.33514,-3.21747 l 1.01296,0.97482 c -1.09524,2.14702 1.46485,4.20165 3.71279,3.28399 -0.25181,-0.91763 -0.48646,-1.82964 -0.43624,-2.70031 0.0722,-1.25089 -1.61504,-2.12245 -3.04075,-0.96878 -0.3399,-0.24867 -1.08557,-0.5404 -1.23853,-0.59903 0.9543,-0.86068 2.12163,-1.90655 3.54351,-3.19375 l 1.60688,0.44229 c -1.06931,0.56922 -1.00223,1.56566 -0.20092,2.28033 1.74416,1.55561 4.48844,0.76656 7.10979,-0.87669 -1.06861,-0.6068 -1.48551,-1.37132 -2.44403,-2.46496 -1.04777,-1.19547 -3.80531,-1.09914 -4.2523,0.95994 -0.55557,-0.25406 -1.78738,-0.33971 -1.81849,-0.34184 0.81929,-0.74171 1.70309,-1.54522 2.70123,-2.46172 -4.01919,2.2928 -6.47934,4.56722 -8.04835,5.98569 l 0.21115,-2.16592 c 2.00702,-1.95932 2.56898,-6.31365 0.92739,-7.41117 -0.57654,0.80831 -1.86787,1.37844 -2.42079,1.92081 -1.8482,1.81295 -1.12852,6.32916 1.04041,5.87267 0.0653,0.59563 0.24053,1.77835 0.24138,1.78407 -3.16816,2.86415 -2.64094,2.17544 -3.54909,-9.3371 z m 11.59789,3.35095 c 0,0 0.37903,-0.26475 0.56183,-0.40602 2.58116,0.63071 4.11145,-0.4779 4.16905,-2.358 0.037,-1.20863 -0.33036,-1.17926 -0.0163,-2.22637 -0.64761,0.44982 -1.38381,0.3792 -2.41707,0.40369 -2.28235,0.0541 -2.6381,1.95629 -1.77709,4.08115 z m 0.18464,14.88374 0.027,-1.23294 c 2.25651,0.0559 2.50068,-2.74364 0.1172,-5.13364 -1.59679,1.05432 -3.63541,4.80459 -0.32184,5.12155 0.0141,0.41862 0.17712,1.24231 0.17766,1.24503 z m 5.41455,-5.74337 1.31248,-0.81809 c 0.22519,0.0734 0.44848,0.17566 0.67624,0.30092 0.91027,0.50058 1.87937,0.53764 2.3166,-1.28876 0.0962,-0.40193 0.20034,-0.74887 0.58043,-0.82321 -1.36816,-1.46277 -4.52411,-0.64592 -4.30485,1.68315 -0.2775,0.24469 -0.5809,0.94599 -0.5809,0.94599 z m -3.14817,4.73367 1.5385,0.52741 c 0.37225,3.69617 5.14266,4.3568 8.28508,2.48775 -3.23268,-2.34803 -3.85278,-4.88736 -8.29345,-2.58031 -0.47418,-0.23707 -1.53013,-0.43485 -1.53013,-0.43485 z m -2.99005,2.74634 c 0,0 0.9041,0.9202 1.49479,0.95762 0.51079,2.4694 2.47385,1.56855 3.10259,1.6785 0.4992,0.0873 1.4671,0.15321 2.871,0.67298 -0.66468,-1.16407 -4.20675,-5.50121 -5.80523,-2.69006 z m 1.36782,5.91127 1.19528,0.13627 c 1.04123,4.15402 4.89281,1.81715 6.1238,0.60973 -0.49162,-0.42672 -1.00707,-0.93213 -1.56873,-1.60548 -1.4757,-1.76914 -4.08105,-2.14146 -4.58809,0.85902 -0.38675,0.023 -1.16226,4.6e-4 -1.16226,4.6e-4 z m -6.80982,-1.33992 0.42416,1.73804 c -2.59874,3.08747 4.4e-4,4.88778 2.05197,5.85545 -0.33137,-0.84169 -0.5957,-1.6481 0.13581,-2.75983 1.21534,-1.84709 -0.15851,-3.94161 -1.85804,-3.46444 -0.26739,-0.44682 -0.75331,-1.36811 -0.7539,-1.36922 z m -20.38899,0.94413 -1.26921,-0.22091 c -0.350561,-2.75525 -3.118872,-3.44267 -5.351304,-2.28126 -1.010006,0.52545 -1.479661,0.46279 -2.935635,0.56554 2.581683,2.21837 5.138039,4.45299 8.308329,1.91337 0.4132,0.0483 1.24782,0.0232 1.24782,0.0232 z m 2.15802,-6.75819 c -0.005,-9e-4 -1.43533,-0.2947 -2.16127,-0.29115 -1.640119,-2.58974 -4.912499,-2.36238 -6.448437,0.77949 1.995727,3.0649 5.916997,2.34241 6.401917,-0.36184 z m -4.20579,-4.94482 c 0,0 -1.150032,-0.0219 -1.702221,0.11349 -1.14156,-2.28373 -3.78191,-2.24185 -4.671343,-1.43387 -1.259486,1.14416 -1.760867,1.49603 -2.541706,1.76036 2.666086,3.6265 6.083003,2.65845 7.197701,-0.28603 z m -2.326834,-2.8682 -0.250218,-1.11249 c 1.755945,-1.7242 1.729869,-4.15267 -0.235799,-5.62663 -0.611559,-0.45857 -0.923425,-0.87079 -1.240854,-1.32921 -1.496286,3.01906 -0.841165,5.30749 1.35387,7.07305 0.110611,0.33645 0.373001,0.99528 0.373001,0.99528 z m 17.853324,5.98243 c 0,0 -0.47549,-0.79883 -0.77623,-1.15016 -0.41995,-2.66444 -2.44936,-3.60494 -4.65879,-2.16824 0.62988,0.50162 1.20187,1.04878 1.63525,1.71757 0.4904,0.75677 1.70881,1.58516 2.70495,0.77763 z m -9.82591,-13.5229 -0.56788,-0.3516 c 0.35296,-3.06398 -2.48832,-3.91692 -4.998754,-2.56589 0.379184,0.47898 0.578214,0.54663 0.879474,1.59664 0.52255,1.82127 2.33078,2.72695 4.10533,1.08087 0.15705,0.13898 0.58183,0.23998 0.58183,0.23998 z m 2.2273,2.31289 0.16418,-1.85198 c 1.468,-1.79858 3.66035,-3.35958 1.03295,-7.4149 -0.18584,-0.28685 -0.36935,-0.71621 -0.54322,-1.12737 -0.009,0.52261 0.20891,0.97189 -0.37532,1.52456 -3.24437,3.06906 -2.4064,4.61851 -0.31393,7.26978 0.0124,0.53319 0.0353,1.59743 0.0354,1.59991 z m 4.83645,4.27276 c 3e-4,-0.005 0.0429,-0.60309 0.0744,-0.90273 2.33879,-0.41091 2.34672,-2.74524 1.86129,-3.3091 -0.90337,-1.04931 -0.54066,-0.12768 -2.32964,-2.74495 -1.57651,0.46917 -2.96226,5.68503 0.33068,6.04195 z m 4.00487,-5.22061 -1.00738,-1.66268 c 0.0313,-2.39155 -0.10879,-3.94146 -3.77279,-5.3141 0.18644,0.68478 1.33065,2.08952 1.06133,2.95702 -0.39376,1.26826 1.4662,2.87185 2.70913,2.53008 0.36788,0.47176 1.00327,1.47946 1.00971,1.48968 z m 10.29704,-7.5214 c -4.09158,2.26605 -3.82517,4.17105 -2.3924,7.1084 -0.0732,0.55722 -0.2986,1.65944 -0.2986,1.65944 l 0.44091,-1.67804 c 1.97416,-0.31523 3.34458,-3.16208 2.53938,-4.89412 -0.33513,-0.72089 -0.40287,-1.4439 -0.28929,-2.19568 z m -21.86796,8.50553 c -0.24677,0.004 -0.47211,0.0898 -0.68647,0.21533 -0.38041,0.22267 -0.85863,0.3671 -1.33434,0.50277 0.60076,0.53008 1.24431,1.0679 1.54828,1.63524 0.91856,1.71439 2.68252,1.15254 2.94401,0.20185 0.6429,0.0707 1.93895,0.0688 1.93895,0.0688 l -2.27428,-0.69159 c -0.2615,-0.54627 -0.50884,-1.09106 -1.32085,-1.64967 -0.30017,-0.20649 -0.56853,-0.28621 -0.8153,-0.28278 z m 4.54996,3.7035 c -0.43591,-0.006 -0.88378,0.14512 -1.21435,0.41904 -1.06323,0.88102 -1.97117,1.32421 -2.85936,1.53107 1.24837,1.54198 4.08288,2.61079 5.53873,0.0414 0.55294,-0.11752 1.68409,-0.19999 1.68409,-0.19999 l -1.67432,0.0921 c 0.10398,-1.31731 -0.66445,-1.87213 -1.47479,-1.88361 z m 26.51605,3.64814 c -0.90524,-0.006 -1.69624,0.36995 -1.96918,1.4841 -0.46936,0.12673 -1.44643,0.18604 -1.44643,0.18604 l 2.2301,-0.06 c 0.29378,0.0999 0.5824,0.27489 0.84181,0.57903 0.93815,1.09992 2.34406,0.57487 3.98813,-0.53113 -0.0536,-0.42155 -2.03075,-1.64697 -3.64443,-1.65804 z m -33.06496,7.97393 c -0.97129,0.0144 -1.9481,0.41558 -2.41566,0.79623 0.4408,0.27816 0.94967,0.40632 1.27108,0.92553 0.8181,1.32158 2.33755,1.56066 3.68117,0.66601 l 0.88879,0.38183 c 0,0 -0.57088,-0.25363 -0.8353,-0.41811 -0.2535,-1.82302 -1.41784,-2.36887 -2.59008,-2.35149 z m 23.79064,1.13249 c -0.87908,0.003 -1.63655,0.56787 -1.61199,1.96221 -0.22595,0.14226 -0.6506,0.21284 -0.95436,0.24649 l 1.21387,-0.0981 c 2.77668,1.56571 3.99154,1.54929 5.64012,-1.06691 -0.93283,0.17017 -1.61757,0.24327 -2.81006,-0.56276 -0.45272,-0.30601 -0.98443,-0.48225 -1.47758,-0.4809 z m -2.56635,2.2087 -0.35114,0.0283 c 0,0 0.14899,-0.006 0.35114,-0.0283 z m 1.94406,1.30597 c 0,0 0.24135,0.93292 0.61206,1.17062 0.33462,0.45423 0.37178,0.99372 0.40184,1.56922 0.0774,1.48294 0.30309,2.42739 1.77663,2.39706 0.55196,-0.0113 1.01314,0.20323 1.6213,0.48322 0.69336,-3.24377 -1.58314,-4.34466 -3.47886,-4.44205 z m -42.132299,27.66017 c -29.26044,-0.32549 -45.812087,17.23709 -45.812087,17.23709 0,0 12.816235,-11.90507 57.631366,1.06831 54.84671,15.87737 61.95761,-15.44464 61.95761,-15.44464 0,0 -14.25392,11.83547 -51.5364,0.6581 -8.058774,-2.41604 -15.48808,-3.44375 -22.240489,-3.51886 z"
       sodipodi:nodetypes="ccccccccsssccccccsccccccccccccsccccccccsccccccccsccccsccccsccscccsccscssccccccccccccccccsccsscccccccccccccccccccscsccccccccccccccscccccccccssccccccccccsccccccsccccccccccsccccccccccscccccsccccccsccccccccccscsccccscccccccccccccscsccscccssscccccsscccscsscscccssccccssccccccccccscscss"
       inkscape:label="path1101" />
  </g>
</svg>
