<svg xmlns="http://www.w3.org/2000/svg" width="542.21" height="542.21" viewBox="0 0 143.46 143.46"><g style="display:inline;fill:#52a230;fill-opacity:1;stroke:none;stroke-width:0;stroke-dasharray:none;stroke-opacity:1" transform="translate(-25.953 -84.696)"><rect width="143.46" height="143.46" x="25.953" y="84.696" ry="26.625" style="opacity:.98;fill:#52a130;fill-opacity:1;stroke:#fffff5;stroke-width:0;stroke-linecap:round;stroke-linejoin:round;stroke-dasharray:none"/><path d="M115.88 117.699c.014.598-.222 1.072-.611 1.504-2.604 2.886.15 4.824 1.01 5.1h0c-.052.232.006.714.006.714l.022-.72c2.585-.503 3.627-4.176-.427-6.598zm.405 7.318c-.04 1.727-.034 3.318-.05 4.74-.058 4.94-.403 7.645-4.006 5.22-1.208-.812-2.783-2.2-4.836-4.272a119.018 119.018 0 0 1-2.227-2.313c3.343 5.932 9.498 9.026 9.81 10.311l.015 3.212.03 5.75c-.371 1.767-1.694 1.83-3.497.925l.115-1.223c.984-.144 2.474-.862 1.452-2.645-.343-.598-.467-1.27-.629-1.908-1.315.345-4.084 4.08-1.116 4.58.078.354.142.99.162 1.187-1.14-.574-2.47-1.534-3.875-2.693l.273-.82c1.56.11 1.98-1.629 2.13-2.93.067-.566.06-1.111.546-1.573-4.024-2.054-4.437 2.899-2.977 4.463-.01.252-.016.612-.02.821a68.619 68.619 0 0 1-2.878-2.539c.026-.273.085-.846.162-1.167 2.708-1.086 1.5-3.108-.186-4.388.026.8-.294 1.266-.77 1.61-1.384.997-.989 3.137.875 2.794l-.083 1.15a150.455 150.455 0 0 1-3.18-3.055c.015-.21.088-1.267.085-1.848 2.199-1.966 1.214-6.11-2.163-6.36-1.554 3.628-.47 5.88 1.71 6.3l.343 1.883c-1.66-1.634-3.187-3.177-4.362-4.296.792.952 1.556 1.909 2.327 2.868 1.324 1.647 2.667 3.3 4.206 4.945h0a43.958 43.958 0 0 0 5.052 4.646c-4.216.776-4.622.494-7.21 2.112.768-.14 1.531-.298 2.287-.448l-1.387 1.611c-1.225-.596-4.66-.27-4.715 3.534-.02 1.33-.056 1.99-.408 2.544.471-.643 1.588-.98 3.018-1.227 2.911-.503 3.526-3.543 2.387-4.662.861-.644 1.103-1.78 1.108-1.8 1.713-.34 3.382-.637 4.949-.59l-.825 1.25c-3.373.852-3.534 3.677-1.932 5.186.386.364.93.616 1.235.99.471-.493.872-.442 1.273-.786 1.535-1.315 1.136-4.052-.173-5.128l.431-1.511c2.035.064 3.897.71 5.465 2.604.469.567.385 17.491-.805 20.926-5.707.939-11.337 2.537-16.654 4.792 10.076 2.322 18.8 3.794 26.245 4.533 15.74 1.564 25.761-.143 30.75-4-10-5.134-22.373-7.126-34.746-6.031-.79-2.903-.856-13.53-.963-20.119.042-2.086 2.162-3.05 3.849-2.612h.003c4.368 1.14 3.907 1.284 6.807 1.34-3.087-.544-2.983-.65-5.462-1.57-.965-.359-.677-1.098-.219-1.36a38.936 38.936 0 0 0 4.313-2.982 28.456 28.456 0 0 0 2.99-2.746c1.562-1.67 2.622-3.292 3.148-4.734a35.7 35.7 0 0 1-2.136 2.58l.311-1.291c1.219-.743 1.273-1.896 1.333-2.607.069-.813.442-1.525.847-2.117-2.296.867-5.659 3.08-2.614 4.948.003.358.121 1.064.122 1.068a35.026 35.026 0 0 1-3.277 3.163v0a36.136 36.136 0 0 1-3.397 2.542l-.062-1.252c1.83-.96 1.999-3.437-.562-5.62-1.804 4.985-1.485 6.048.138 5.806-.083.378.471 1.052.484 1.068a38.85 38.85 0 0 1-1.95 1.213l-.61-.544c.257-.379.18-.888.017-1.137-.373-.57-2.125-1.765-3.606-1.818.426.727.877 1.49.968 2.319.047.421.335.836.99 1.024.431.124.898.12 1.286-.086.07-.037.132-.08.186-.126.232.161.76.365.768.368a43.57 43.57 0 0 1-2.499 1.343c-1.56.618-2.562.436-2.591-.682l-.212-8.005c-.024-.916.11-1.498.875-2.412l.747 1.232c-1.542.756-1.385 3.827 1.066 3.948.985.048 1.449.603 1.992 1.09-.084-1.35.127-5.43-2.773-5.145-.284-.413-1-1.097-1.031-1.127.615-.735 1.655-1.702 3.335-3.217l1.013.975c-1.095 2.147 1.465 4.201 3.713 3.284-.252-.918-.487-1.83-.436-2.7.072-1.252-1.615-2.123-3.041-.97-.34-.248-1.086-.54-1.239-.599.955-.86 2.122-1.906 3.544-3.193l1.607.442c-1.07.57-1.002 1.566-.201 2.28 1.744 1.556 4.488.767 7.11-.876-1.069-.607-1.486-1.372-2.444-2.465-1.048-1.196-3.806-1.1-4.253.96-.555-.254-1.787-.34-1.818-.342.82-.742 1.703-1.545 2.701-2.462-4.02 2.293-6.48 4.567-8.048 5.986l.21-2.166c2.008-1.96 2.57-6.314.928-7.411-.576.808-1.868 1.378-2.42 1.92-1.849 1.813-1.129 6.33 1.04 5.873.065.596.24 1.778.241 1.784-3.168 2.864-2.64 2.176-3.549-9.337zm11.598 3.351s.379-.265.562-.406c2.58.63 4.111-.478 4.169-2.358.037-1.209-.33-1.18-.017-2.226-.647.45-1.383.379-2.417.403-2.282.054-2.638 1.957-1.777 4.082zm.184 14.884.027-1.233c2.257.056 2.501-2.744.118-5.134-1.597 1.055-3.636 4.805-.322 5.122.014.418.177 1.242.177 1.245zm5.415-5.744 1.312-.818c.226.074.449.176.677.301.91.5 1.879.538 2.316-1.289.096-.401.2-.748.58-.823-1.367-1.462-4.523-.646-4.304 1.683-.278.245-.581.946-.581.946zm-3.148 4.734 1.538.528c.373 3.696 5.143 4.356 8.285 2.487-3.232-2.348-3.852-4.887-8.293-2.58-.474-.237-1.53-.435-1.53-.435zm-2.99 2.746s.904.92 1.495.958c.51 2.47 2.473 1.569 3.102 1.679.5.087 1.467.153 2.871.673-.665-1.165-4.207-5.502-5.805-2.69zm1.368 5.912 1.195.136c1.041 4.154 4.893 1.817 6.124.61a13.682 13.682 0 0 1-1.57-1.606c-1.475-1.769-4.08-2.141-4.587.86-.387.022-1.162 0-1.162 0zm-6.81-1.34.424 1.738c-2.599 3.087 0 4.888 2.052 5.855-.332-.841-.596-1.648.136-2.76 1.215-1.847-.159-3.941-1.858-3.464a37.807 37.807 0 0 1-.754-1.37zm-20.39.944-1.268-.221c-.351-2.755-3.12-3.443-5.352-2.281-1.01.525-1.48.463-2.935.565 2.581 2.219 5.138 4.453 8.308 1.914.413.048 1.248.023 1.248.023zm2.159-6.758c-.005-.001-1.436-.295-2.162-.291-1.64-2.59-4.912-2.363-6.448.78 1.996 3.064 5.917 2.341 6.402-.363zm-4.206-4.945s-1.15-.022-1.702.113c-1.142-2.283-3.782-2.241-4.672-1.433-1.26 1.144-1.76 1.496-2.541 1.76 2.666 3.626 6.083 2.658 7.197-.286zm-2.327-2.868-.25-1.113c1.756-1.724 1.73-4.152-.236-5.626-.611-.459-.923-.871-1.24-1.33-1.497 3.02-.842 5.308 1.353 7.073.11.337.373.996.373.996zm17.853 5.982s-.475-.799-.776-1.15c-.42-2.664-2.45-3.605-4.659-2.168.63.501 1.202 1.049 1.636 1.717.49.757 1.709 1.585 2.705.778zm-9.825-13.523-.568-.351c.353-3.064-2.489-3.917-5-2.566.38.479.58.546.88 1.596.523 1.822 2.331 2.727 4.106 1.081.157.14.582.24.582.24zm2.227 2.313.164-1.852c1.468-1.798 3.66-3.36 1.033-7.415-.186-.287-.37-.716-.543-1.127-.01.522.209.972-.376 1.524-3.244 3.07-2.406 4.619-.313 7.27l.035 1.6zm4.836 4.273c0-.005.043-.603.075-.903 2.338-.41 2.346-2.745 1.861-3.309-.903-1.05-.54-.128-2.33-2.745-1.576.47-2.962 5.685.331 6.042zm4.005-5.22-1.007-1.663c.031-2.392-.109-3.942-3.773-5.314.186.684 1.33 2.089 1.061 2.957-.393 1.268 1.467 2.871 2.71 2.53.367.471 1.003 1.48 1.01 1.49zm10.297-7.522c-4.091 2.266-3.825 4.17-2.392 7.108-.073.558-.299 1.66-.299 1.66l.441-1.678c1.974-.316 3.345-3.162 2.54-4.894-.336-.721-.403-1.444-.29-2.196zm-21.868 8.505c-.247.004-.472.09-.686.216-.38.222-.859.367-1.335.503.601.53 1.245 1.067 1.549 1.635.918 1.714 2.682 1.152 2.944.202.643.07 1.939.068 1.939.068l-2.275-.691c-.261-.546-.508-1.091-1.32-1.65-.3-.206-.569-.286-.816-.283zm4.55 3.704a1.896 1.896 0 0 0-1.214.419c-1.063.881-1.971 1.324-2.86 1.531 1.249 1.542 4.083 2.61 5.54.041.552-.117 1.683-.2 1.683-.2l-1.674.093c.104-1.318-.664-1.873-1.475-1.884zm26.516 3.648c-.905-.006-1.696.37-1.969 1.484-.47.127-1.446.186-1.446.186l2.23-.06c.294.1.582.275.842.58.938 1.1 2.344.574 3.988-.532-.054-.421-2.031-1.647-3.645-1.658zm-33.065 7.974c-.971.014-1.948.416-2.415.796.44.278.95.407 1.27.926.819 1.321 2.338 1.56 3.682.666l.889.382s-.571-.254-.836-.419c-.253-1.823-1.417-2.368-2.59-2.351zm23.79 1.132c-.878.003-1.636.568-1.611 1.963-.226.142-.65.213-.954.246l1.213-.098c2.777 1.566 3.992 1.55 5.64-1.067-.932.17-1.617.243-2.81-.563-.452-.306-.984-.482-1.477-.48zm-2.565 2.21-.352.027s.15-.006.352-.028zm1.944 1.305s.241.933.612 1.17c.334.455.371.994.402 1.57.077 1.483.303 2.427 1.776 2.397.552-.011 1.013.203 1.621.483.694-3.244-1.583-4.344-3.478-4.442zM83.7 178.374c-29.26-.325-45.812 17.237-45.812 17.237s12.817-11.905 57.632 1.069c54.846 15.877 61.957-15.445 61.957-15.445s-14.254 11.836-51.536.658c-8.059-2.416-15.488-3.444-22.24-3.519z" style="display:inline;fill:#fff;fill-opacity:1;stroke:#fff;stroke-width:0;stroke-linecap:round;stroke-linejoin:round;stroke-miterlimit:4;stroke-dasharray:none;stroke-opacity:1"/></g></svg>